<?xml version="1.0" encoding="UTF-8"?>
<!DOCTYPE svg PUBLIC "-//W3C//DTD SVG 1.1//EN" "http://www.w3.org/Graphics/SVG/1.1/DTD/svg11.dtd">
<!-- Creator: CorelDRAW X8 -->
<svg xmlns="http://www.w3.org/2000/svg" xml:space="preserve" width="1.70666in" height="1.70666in" version="1.1" style="shape-rendering:geometricPrecision; text-rendering:geometricPrecision; image-rendering:optimizeQuality; fill-rule:evenodd; clip-rule:evenodd"
viewBox="0 0 1707 1707"
 xmlns:xlink="http://www.w3.org/1999/xlink">
 <defs>
  <style type="text/css">
   <![CDATA[
    .fil6 {fill:none}
    .fil2 {fill:#FEFEFE}
    .fil0 {fill:#8E3B94}
    .fil1 {fill:#753179}
    .fil7 {fill:#3A4086}
    .fil4 {fill:red}
    .fil3 {fill:#FFCC00}
    .fil5 {fill:white}
   ]]>
  </style>
    <clipPath id="id0">
     <path d="M1162 1037l-275 0c2,55 17,119 64,152 22,17 48,23 76,22 30,0 59,-9 82,-30 40,-35 53,-93 53,-144z"/>
    </clipPath>
 </defs>
 <g id="Layer_x0020_1">
  <metadata id="CorelCorpID_0Corel-Layer"/>
  <path class="fil0" d="M1072 1146c-78,57 -173,90 -287,100l-145 0c-115,-10 -210,-43 -286,-100 -93,-70 -140,-160 -140,-271 0,-109 47,-198 140,-267 91,-71 212,-105 359,-105 145,0 266,34 359,105 91,69 138,158 138,267 0,111 -47,201 -138,271z"/>
  <polygon class="fil0" points="1402,1234 1267,1218 1282,1099 1417,1116 "/>
  <polygon class="fil0" points="1537,515 1306,486 1308,1022 1408,1036 "/>
  <path class="fil0" d="M1003 784l-71 15c-10,3 -39,24 -89,64 -52,42 -79,69 -84,83l-3 37 -1 23 6 57 93 1 -2 29 -151 0 -135 1 4 -27 44 -1c22,-2 36,-5 40,-9 3,-3 5,-21 5,-53l0 -19 -2 -39c-3,-9 -27,-42 -73,-99 -48,-59 -80,-93 -95,-106l-87 -12 0 -25c4,-3 52,-3 141,-2 62,-1 113,-1 153,2l-3 21 -91 9c28,42 72,101 130,174 77,-58 117,-96 119,-112l-78 -12 -6 -27 131 0 123 1 -18 26z"/>
  <polygon class="fil0" points="1453,1116 1443,1116 1443,1108 1471,1108 1471,1116 1461,1116 1461,1144 1453,1144 "/>
  <polygon class="fil0" points="1486,1119 1486,1144 1479,1144 1479,1108 1488,1108 1498,1126 1509,1108 1516,1108 1516,1144 1509,1144 1509,1119 1498,1137 1497,1137 "/>
  <path class="fil0" d="M1072 1146c-78,57 -173,90 -287,100l-145 0c-115,-10 -210,-43 -286,-100 -93,-70 -140,-160 -140,-271 0,-109 47,-198 140,-267 91,-71 212,-105 359,-105 145,0 266,34 359,105 91,69 138,158 138,267 0,111 -47,201 -138,271z"/>
  <path class="fil1" d="M1072 1146c-78,57 -173,90 -287,100l-133 0 -155 -152 135 -1 73 0 -372 -364 95 20 3 2 3 3 4 3 250 245 0 -5 0 -6 0 -7 0 -6 1 -8 0 -7 1 -8 1 -9 1 -3 1 -3 1 -2 -30 -30 -6 -7 -5 -6 -5 -7 -5 -6 -5 -6 -5 -6 -5 -6 -4 -6 -5 -6 -4 -5 -4 -6 -4 -5 -4 -5 -4 -5 -4 -5 -4 -5 -3 -5 -4 -5 -3 -5 -4 -4 -3 -5 -3 -4 -4 -4 -3 -5 -3 -4 -3 -4 -3 -4 -2 -4 -3 -4 -3 -4 -3 -4 -3 -4 83 -22 3 -21 83 80 72 12 35 33 5 -3 6 -5 6 -4 5 -4 5 -3 4 -3 4 -3 3 -2 3 -1 3 -2 2 0 71 -15 18 -26 238 233c-21,60 -61,111 -118,155z"/>
  <polygon class="fil0" points="1402,1234 1267,1218 1282,1099 1417,1116 "/>
  <polygon class="fil0" points="1537,515 1306,486 1308,1022 1408,1036 "/>
  <path class="fil2" d="M934 784l-71 15c-10,3 -39,24 -88,64 -53,42 -80,69 -84,83 -4,49 -4,67 1,117l93 1 -1 29 -152 0 -135 1 4 -27 44 -1c22,-2 36,-5 40,-9 3,-3 5,-21 5,-53l0 -19 -2 -39c-3,-9 -27,-42 -73,-99 -48,-59 -72,-86 -87,-98l-95 -20 0 -25 294 0 -3 21 -83 22c29,42 64,88 123,161 76,-58 117,-96 118,-112l-78 -12 -6 -27 254 1 -18 26z"/>
  <polygon class="fil0" points="1453,1116 1443,1116 1443,1108 1471,1108 1471,1116 1461,1116 1461,1144 1453,1144 "/>
  <polygon class="fil0" points="1486,1119 1486,1144 1479,1144 1479,1108 1488,1108 1498,1126 1509,1108 1516,1108 1516,1144 1509,1144 1509,1119 1498,1137 1497,1137 "/>
  <g id="_1115098076128">
   <circle class="fil3" cx="1025" cy="1051" r="195"/>
   <path class="fil4" d="M1027 1220c-98,1 -148,-81 -148,-192l290 0c4,102 -41,188 -142,192z"/>
   <g>
   </g>
   <g style="clip-path:url(#id0)">
    <g id="_1115098078048">
     <rect class="fil5" x="875" y="1025" width="296.905" height="51.7091"/>
    </g>
   </g>
   <path class="fil6" d="M1162 1037l-275 0c2,55 17,119 64,152 22,17 48,23 76,22 30,0 59,-9 82,-30 40,-35 53,-93 53,-144z"/>
   <ellipse class="fil7" cx="974" cy="965" rx="20" ry="23"/>
   <ellipse class="fil7" cx="1075" cy="965" rx="20" ry="23"/>
  </g>
 </g>
</svg>
